<svg id="Layer_1" data-name="Layer 1" xmlns="http://www.w3.org/2000/svg" viewBox="0 0 322.39 304.21"><path d="M327,20h-.67A13.69,13.69,0,0,0,312.6,33.68v84.44H47.28V37.69A13.7,13.7,0,0,0,33.6,24h-.67A13.7,13.7,0,0,0,19.24,37.69V229.36a12.92,12.92,0,0,0,12.91,12.91h2.22a12.92,12.92,0,0,0,12.91-12.91V146.15H312.6V223.6L186.18,297.25a13,13,0,0,0-4.71,17.61l1.11,1.92a12.92,12.92,0,0,0,11.18,6.43,13.05,13.05,0,0,0,6.61-1.8L334,242.76a13.66,13.66,0,0,0,6.6-11.39V33.68A13.7,13.7,0,0,0,327,20Zm4.67,111.8v99.56a3.84,3.84,0,0,1-1,2.53l0,0,0,0a3.94,3.94,0,0,1-1.17,1.06L195.79,313.65a4,4,0,0,1-2,.55,3.9,3.9,0,0,1-3.38-1.93l-1.11-1.91a4,4,0,0,1,1.46-5.34l130.38-76,.5-.29V137.14H38.27v92.22a3.91,3.91,0,0,1-3.9,3.9H32.15a3.9,3.9,0,0,1-3.89-3.9V37.69A4.67,4.67,0,0,1,32.93,33h.67a4.68,4.68,0,0,1,4.67,4.67v89.44H321.61V33.68A4.68,4.68,0,0,1,326.28,29H327a4.68,4.68,0,0,1,4.67,4.67Z" transform="translate(-18.74 -19.5)" style="stroke:#000;stroke-miterlimit:10"/></svg>